<svg width="406" height="79" viewBox="0 0 406 79" xmlns="http://www.w3.org/2000/svg"><title>logo</title><g fill="none" fill-rule="evenodd"><path d="M71.742 61.637c-3.764-3.793-8.697-5.548-12.553-4.624l-2.003-1.996a113.408 113.408 0 0 0 8.347-9.556c2.954-3.909 3.639-5.764 2.504-6.87-.635-.632-2.504-2.495-16.484 10.812L48.79 46.65c13.396-13.897 11.5-15.8 10.85-16.425-.65-.624-2.504-2.495-16.476 10.811L40.435 38.3c13.396-13.897 11.501-15.8 10.85-16.425-1.11-1.098-2.97-.416-6.894 2.495a113.576 113.576 0 0 0-9.59 8.317l-2.77-2.761c13.395-13.897 11.5-15.802 10.85-16.417-.651-.616-2.504-2.495-16.484 10.811L23.8 21.734l10.95-10.82a1.245 1.245 0 0 0-.242-1.955C21.864 1.475 10.931 2.64 5.547 4.011a1.243 1.243 0 0 0-.835 1.746l1.612 3.327-3.765-1.43a1.256 1.256 0 0 0-1.669.89c-1.244 5.538-2.262 16.691 4.8 29.108.19.339.53.57.917.623.5-.009.815-.15 1.044-.39l10.9-10.812 2.596 2.586C7.742 43.556 9.645 45.461 10.297 46.085c.65.623 2.503 2.495 16.475-10.812l2.771 2.761a113.367 113.367 0 0 0-8.346 9.556c-2.955 3.909-3.64 5.763-2.504 6.87.634.631 2.504 2.494 16.484-10.812l2.763 2.761C24.544 60.306 26.438 62.21 27.09 62.826c.65.615 2.503 2.495 16.483-10.812l2.771 2.761c-13.404 13.897-11.5 15.802-10.85 16.426 1.102 1.097 2.971.415 6.894-2.495a113.393 113.393 0 0 0 9.59-8.317l2.003 1.996c-.91 3.834.893 8.75 4.658 12.475.97.971 2.045 3.08 3.205 3.816a2.117 2.117 0 0 0 2.387-.092c.715-.498 1.047-2.631.834-3.475-.634-2.495-.242-4.632 1.077-5.938 1.319-1.305 3.489-1.663 5.96-1.072.845.214 2.982-.108 3.494-.812.511-.704.54-1.648.071-2.382-.844-1.237-2.952-2.305-3.925-3.268zM7.066 34.965a38.237 38.237 0 0 1-4.031-24.45l5.333 2.07c.47.174.999.052 1.344-.31.345-.362.44-.894.242-1.353L7.66 6.1c5.15-1.023 13.972-1.356 24.163 4.208l-12.395 12.35-1.76 1.755-10.6 10.553zm57.198 32.36c-1.77 1.763-2.454 4.425-1.928 7.394a16.502 16.502 0 0 1-2.003-1.705c-3.339-3.327-4.891-7.693-3.84-10.687a1.244 1.244 0 0 0-.3-1.29l-3.389-3.376a1.255 1.255 0 0 0-1.76 0c-6.11 5.913-10.692 9.473-12.98 10.812 1.361-2.279 4.942-6.836 10.851-12.932a1.244 1.244 0 0 0 0-1.755l-4.507-4.491a1.255 1.255 0 0 0-1.761 0c-6.11 5.913-10.683 9.472-12.97 10.811 1.368-2.278 4.94-6.836 10.85-12.924a1.244 1.244 0 0 0 0-1.754l-4.507-4.491a1.255 1.255 0 0 0-1.761 0c-6.11 5.921-10.692 9.48-12.979 10.811 1.36-2.279 4.933-6.844 10.85-12.932a1.244 1.244 0 0 0 0-1.755l-4.507-4.49a1.255 1.255 0 0 0-1.76 0c-6.11 5.912-10.684 9.472-12.97 10.81 1.368-2.278 4.94-6.835 10.85-12.923a1.244 1.244 0 0 0 0-1.755l-3.464-3.451 1.752-1.747 3.464 3.452c.488.48 1.273.48 1.761 0 6.11-5.914 10.684-9.473 12.97-10.812-1.368 2.279-4.94 6.836-10.85 12.924a1.244 1.244 0 0 0 0 1.755l4.507 4.49a1.254 1.254 0 0 0 1.828.076c6.11-5.914 10.692-9.473 12.979-10.812-1.36 2.279-4.933 6.836-10.85 12.932a1.244 1.244 0 0 0 0 1.755l4.506 4.491a1.255 1.255 0 0 0 1.711-.05c6.11-5.913 10.684-9.473 12.97-10.811-1.368 2.278-4.94 6.836-10.85 12.923a1.244 1.244 0 0 0 0 1.755l4.507 4.491a1.255 1.255 0 0 0 1.72-.041c6.11-5.913 10.692-9.473 12.978-10.812-1.36 2.279-4.94 6.845-10.85 12.932a1.244 1.244 0 0 0 0 1.755l3.389 3.377c.338.338.84.454 1.293.3 3.022-1.04 7.429.531 10.726 3.825a16.266 16.266 0 0 1 1.71 1.996c-2.954-.516-5.617.158-7.386 1.93zM21.18 14.213a2.492 2.492 0 1 1 0-4.983 2.492 2.492 0 0 1 0 4.983z" opacity=".473" fill="#000" fill-rule="nonzero"/><text font-family="Montserrat-Regular, Montserrat" font-size="64" letter-spacing="-.7"><tspan x="99.586" y="62" fill="#343434">BONES</tspan> <tspan x="330.71" y="62" fill="#343434"> </tspan> <tspan x="348.246" y="62" font-family="Montserrat-Bold, Montserrat" font-size="48" font-weight="bold" fill="#CACACA">v2</tspan></text></g></svg>