<?xml version="1.0" encoding="UTF-8"?>
<svg width="406px" height="79px" viewBox="0 0 406 79" version="1.1" xmlns="http://www.w3.org/2000/svg" xmlns:xlink="http://www.w3.org/1999/xlink">
    <!-- Generator: Sketch 48.2 (47327) - http://www.bohemiancoding.com/sketch -->
    <title>logo</title>
    <desc>Created with Sketch.</desc>
    <defs></defs>
    <g id="Page-1" stroke="none" stroke-width="1" fill="none" fill-rule="evenodd">
        <g id="Group">
            <g id="noun_1074829_cc" opacity="0.47339221" transform="translate(0.000000, 3.000000)" fill="#000000" fill-rule="nonzero">
                <path d="M71.7423774,58.6365898 C67.9781639,54.8442348 63.0454583,53.089439 59.1894346,54.012578 L57.1863055,52.0166017 C60.1451179,48.9889647 62.9315969,45.7987329 65.532677,42.4608653 C68.4872925,38.5520783 69.171695,36.6974837 68.0365885,35.5913802 C67.4022642,34.959321 65.532677,33.0964098 51.5525047,46.4029184 L48.7898557,43.6501345 C62.185782,29.7531495 60.2911557,27.8486555 59.6401387,27.2249129 C58.9891217,26.6011703 57.1362272,24.7299425 43.1644013,38.0364511 L40.4351378,35.3003003 C53.8310641,21.4033154 51.9364378,19.4988213 51.2854208,18.8750787 C50.1753534,17.7772918 48.3141125,18.4592504 44.3913179,21.3700491 C41.0414885,23.9618411 37.8398241,26.7383701 34.8013371,29.686617 L32.0303417,26.9255165 C45.426268,13.0285315 43.5316417,11.1240375 42.8806247,10.5086115 C42.2296077,9.89318544 40.3767132,8.0136411 26.3965409,21.3201497 L23.8008194,18.7336971 L34.7512588,7.91384228 C35.0247994,7.64206576 35.1571147,7.25968557 35.1098042,6.87767618 C35.0624937,6.49566679 34.8408557,6.15680998 34.5092141,5.95944883 C21.8644612,-1.52546226 10.9307145,-0.361142757 5.54730486,1.01109094 C5.18157659,1.09994899 4.87538762,1.34806966 4.71354197,1.68673187 C4.55169632,2.02539409 4.55137526,2.41864604 4.71266771,2.7575702 L6.32351742,6.08419735 L2.55930386,4.65374767 C2.22002752,4.52415973 1.84098659,4.54783517 1.52060707,4.71862616 C1.20022754,4.88941716 0.970117383,5.19047382 0.890029555,5.54362044 C-0.353579802,11.0824546 -1.37183713,22.2349722 5.68919318,34.651608 C5.88079078,34.990874 6.2203522,35.2215664 6.60729405,35.2753506 C7.10686955,35.2662901 7.42221108,35.1256413 7.65059049,34.8844719 L18.5509517,24.0729337 L21.1466732,26.6593863 C7.74240058,40.5563712 9.64537328,42.4608653 10.2963903,43.0846078 C10.9474072,43.7083504 12.8003017,45.5795782 26.7721276,32.2730696 L29.543123,35.0341701 C26.5842464,38.0617483 23.7977641,41.2519838 21.1967515,44.5899066 C18.242136,48.4986935 17.5577335,50.3532882 18.69284,51.4593917 C19.3271642,52.0914509 21.1967515,53.9543621 35.1769238,40.6478535 L37.9395727,43.408954 C24.5436465,57.3059389 26.4382728,59.210433 27.0892898,59.825859 C27.7403067,60.441285 29.5932012,62.3208293 43.5733735,49.0143207 L46.3443689,51.7754213 C32.9400962,65.6724062 34.8430689,67.5769002 35.4940859,68.2006428 C36.5958069,69.2984298 38.4653942,68.6164712 42.3881888,65.7056725 C45.7382623,63.1141763 48.9399429,60.3376333 51.9781696,57.3891046 L53.9812988,59.3850809 C53.0715443,63.2190187 54.8743606,68.1341103 58.6385741,71.8599327 C59.6088337,72.8313552 60.6836685,74.9390746 61.8435808,75.6756538 C62.1808959,75.8876164 62.5715525,76.0000698 62.9703409,76 C63.4240967,75.9982525 63.8655122,75.8526103 64.230643,75.5841716 C64.9460773,75.0857927 65.2782027,72.9529734 65.0652802,72.1094297 C64.430956,69.6144594 64.8232354,67.4771014 66.1419621,66.1714003 C67.4606888,64.8656991 69.6307454,64.5080867 72.1012714,65.098563 C72.9468827,65.3128177 75.0839813,64.9910962 75.5956402,64.286868 C76.1072992,63.5826398 76.1357672,62.6385688 75.6674643,61.905001 C74.8233592,60.6683132 72.7152523,59.5999839 71.7423774,58.6365898 Z M7.06634448,31.9653566 C3.04481269,24.4839811 1.62703302,15.8848342 3.03504704,7.51464702 L8.36837844,9.58547243 C8.83824439,9.75949947 9.36698993,9.63748444 9.71224298,9.2753579 C10.057496,8.91323137 10.1526901,8.38081315 9.95418903,7.92215885 L7.65893686,3.09854948 C12.8086481,2.07561163 21.6307628,1.74294892 31.8216824,7.30673283 L19.4273207,19.6568361 L17.6662363,21.411632 L7.06634448,31.9653566 Z M64.2640285,64.3251222 C62.4945978,66.0882346 61.8101953,68.7495363 62.3360167,71.7185511 C61.6238175,71.2043002 60.9539779,70.6341886 60.3328875,70.0136546 C56.9943389,66.6870275 55.4419138,62.3208293 56.4935566,59.3268649 C56.6492348,58.8752872 56.5325713,58.3747799 56.1930873,58.0377969 L52.8044604,54.6612703 C52.3166416,54.1803402 51.5311949,54.1803402 51.043376,54.6612703 C44.9338321,60.5743501 40.3516741,64.1338411 38.0647683,65.4728086 C39.4252269,63.194069 43.0058203,58.6365898 48.9150513,52.5405455 C49.3977049,52.0544686 49.3977049,51.2718266 48.9150513,50.7857497 L44.4080107,46.294803 C43.9201918,45.8138729 43.1347451,45.8138729 42.6469263,46.294803 C36.5373823,52.2078828 31.9635707,55.7673739 29.6766649,57.1063413 C31.0454699,54.8276017 34.6177169,50.2701225 40.5269479,44.1823948 C41.0096016,43.6963179 41.0096016,42.9136759 40.5269479,42.427599 L36.0199073,37.9366523 C35.5320884,37.4557222 34.7466418,37.4557222 34.2588229,37.9366523 C28.1492789,43.8580487 23.567121,47.4175397 21.2802152,48.7481906 C22.6406737,46.469451 26.2129208,41.9036552 32.1304982,35.8159275 C32.6131518,35.3298506 32.6131518,34.5472086 32.1304982,34.0611317 L27.6234575,29.570185 C27.1356387,29.0892549 26.350192,29.0892549 25.8623732,29.570185 C19.7528292,35.4832648 15.1790176,39.0427559 12.8921118,40.3817233 C14.2609167,38.1029837 17.8331637,33.5455045 23.7423948,27.4577768 C24.2250484,26.9716999 24.2250484,26.1890579 23.7423948,25.702981 L20.2786506,22.2516053 L22.0313886,20.5051261 L25.4951328,23.9565017 C25.9829517,24.4374319 26.7683983,24.4374319 27.2562172,23.9565017 C33.3657612,18.043422 37.9395727,14.4839309 40.2264785,13.1449635 C38.8576736,15.4237031 35.2854266,19.9811823 29.3761956,26.06891 C28.8935419,26.5549869 28.8935419,27.3376289 29.3761956,27.8237058 L33.8832362,32.3146524 C34.1093837,32.5765546 34.4344104,32.7332733 34.780857,32.74746 C35.1273036,32.7616467 35.4641397,32.6320307 35.7110915,32.3895016 C41.8206355,26.4764218 46.4027935,22.9169307 48.6896993,21.5779633 C47.3292407,23.8567029 43.7569937,28.4141821 37.8394163,34.5102264 C37.3567626,34.9963033 37.3567626,35.7789453 37.8394163,36.2650222 L42.3464569,40.7559688 C42.8409105,41.1911143 43.5893973,41.1692856 44.0574631,40.7060694 C50.167007,34.7929897 54.7408186,31.2334986 57.0277244,29.8945312 C55.6589195,32.1732708 52.0866725,36.73075 46.1774414,42.8184777 C45.6947878,43.3045546 45.6947878,44.0871966 46.1774414,44.5732735 L50.6844821,49.0642201 C51.1779851,49.5068668 51.9324647,49.4886196 52.4038346,49.0226373 C58.5133786,43.1095575 63.0955365,39.5500665 65.3824423,38.2110991 C64.0219838,40.4898387 60.4413904,45.0556344 54.5321593,51.1433621 C54.0495057,51.629439 54.0495057,52.412081 54.5321593,52.8981579 L57.9207862,56.2746845 C58.2589768,56.6129563 58.7612777,56.7292032 59.2144738,56.5740809 C62.2358603,55.53451 66.6427444,57.1063413 69.9395612,60.3997022 C70.56298,61.0179646 71.1351817,61.6854672 71.6505673,62.3956785 C68.6959518,61.8800513 66.0334593,62.5536932 64.2640285,64.3251222 Z M21.1803279,11.2131148 C19.8041429,11.2131148 18.6885246,10.0974964 18.6885246,8.72131148 C18.6885246,7.34512653 19.8041429,6.2295082 21.1803279,6.2295082 C22.5565128,6.2295082 23.6721311,7.34512653 23.6721311,8.72131148 C23.6721311,10.0974964 22.5565128,11.2131148 21.1803279,11.2131148 Z" id="Shape"></path>
            </g>
            <text id="BONES-v2" font-family="Montserrat-Regular, Montserrat" font-size="64" font-weight="normal" letter-spacing="-0.7">
                <tspan x="99.586" y="62" fill="#343434">BONES</tspan>
                <tspan x="330.71" y="62" fill="#343434"> </tspan>
                <tspan x="348.246" y="62" font-family="Montserrat-Bold, Montserrat" font-size="48" font-weight="bold" fill="#CACACA">v2</tspan>
            </text>
        </g>
    </g>
</svg>