<svg id="Layer_1" data-name="Layer 1" xmlns="http://www.w3.org/2000/svg" viewBox="0 0 226.6 60.25"><title>Artboard 1</title><path d="M.1.44H17.37q8.94,0,13.79,3.87T36,15.24q0,5.35-2.56,8.44t-7.68,3.87a13.68,13.68,0,0,1,9,4.9A15.87,15.87,0,0,1,38,42.74q0,7.93-5.2,12t-15.47,4H.1ZM8,6.92V24.5h9.18q5.7,0,8.26-2.19T28,15.24q0-4.41-2.52-6.37t-8.3-2Zm0,24V52.27h9.34q6.87,0,9.8-2.4T30.1,42q0-5.7-3.09-8.38T17.37,30.9Z"/><path d="M65.84,14q9.1,0,13.93,5.9t4.82,17.07q0,11.21-4.8,17.09T65.84,59.89q-9.1,0-13.91-5.88t-4.8-17.09q0-11.17,4.8-17.07T65.84,14Zm0,6.09a9.29,9.29,0,0,0-8.28,4.26q-2.81,4.26-2.81,12.62t2.81,12.6a9.28,9.28,0,0,0,8.28,4.28,9.31,9.31,0,0,0,8.32-4.28Q77,45.24,77,36.92T74.16,24.3A9.33,9.33,0,0,0,65.84,20Z"/><path d="M131,31.65V58.75h-7.23V31.65q0-5.9-2.07-8.67t-6.48-2.77a9.16,9.16,0,0,0-7.75,3.57q-2.72,3.57-2.71,10.25V58.75H97.56V15h7.19v6.56a13.53,13.53,0,0,1,5.2-5.68A15,15,0,0,1,117.72,14q6.68,0,10,4.39T131,31.65Z"/><path d="M181.54,35.08V38.6H150.41v.23q0,7.15,3.73,11.05t10.53,3.91a25.65,25.65,0,0,0,7.19-1.09,44.06,44.06,0,0,0,8-3.32v7.15A48.42,48.42,0,0,1,172,59a34.19,34.19,0,0,1-7.36.84q-10.2,0-15.94-6.11t-5.74-16.85q0-10.47,5.63-16.72t15-6.25q8.36,0,13.18,5.66T181.54,35.08ZM174.36,33q-.16-6.33-3-9.63T163.22,20a11.45,11.45,0,0,0-8.55,3.44q-3.36,3.44-4,9.53Z"/><path d="M224.28,16.53v7a27.46,27.46,0,0,0-6.21-2.7,23,23,0,0,0-6.37-.9q-4.88,0-7.29,1.58a5.38,5.38,0,0,0-2.4,4.82,5.28,5.28,0,0,0,1.8,4.38q1.8,1.45,8.95,2.81l2.89.55a14.09,14.09,0,0,1,8.11,4.06,11.37,11.37,0,0,1,2.75,7.93,12.21,12.21,0,0,1-4.61,10.14q-4.61,3.65-12.81,3.65a36.05,36.05,0,0,1-6.8-.68,61.88,61.88,0,0,1-7.7-2.05V49.73a41.47,41.47,0,0,0,7.7,3.11,25.64,25.64,0,0,0,7,1q4.77,0,7.38-1.93a6.34,6.34,0,0,0,2.62-5.41q0-5-9.57-6.91l-.31-.08-2.7-.55q-6.21-1.21-9.06-4.08a10.62,10.62,0,0,1-2.85-7.83q0-6.29,4.26-9.71T211.15,14a34.6,34.6,0,0,1,6.76.64A34.12,34.12,0,0,1,224.28,16.53Z"/></svg>